<?xml version="1.0" encoding="utf-8"?>
<!-- Generator: Adobe Illustrator 16.0.0, SVG Export Plug-In . SVG Version: 6.00 Build 0)  -->
<!DOCTYPE svg PUBLIC "-//W3C//DTD SVG 1.1//EN" "http://www.w3.org/Graphics/SVG/1.1/DTD/svg11.dtd">
<svg version="1.1" id="Layer_2" xmlns="http://www.w3.org/2000/svg" xmlns:xlink="http://www.w3.org/1999/xlink" x="0px" y="0px"
	 width="868px" height="450px" viewBox="0 0 868 450" enable-background="new 0 0 868 450" xml:space="preserve">
<g>
	<g>
		<path d="M277.826,363.976c15.914-46.702,39.792-90.375,66.06-131.98c22.561-35.733,47.337-70.056,73.352-103.345
			c-1.16,1.484,0.749-0.952,0.792-1.007c0.57-0.726,1.142-1.451,1.713-2.176c1.095-1.39,2.194-2.777,3.294-4.163
			c2.154-2.715,4.319-5.422,6.49-8.124c3.199-3.982,6.418-7.949,9.634-11.918c2.246-2.772,4.502-5.542,6.656-8.386
			c0.719-0.95,1.209-1.861,1.771-2.966c2.561-5.033-4.943-3.444-7.111-2.486c-5.549,2.453-9.922,6.98-14.385,10.98
			c-5.682,5.091-11.37,10.175-17.059,15.259c-44.403,39.687-88.849,79.327-133.294,118.966
			c-45.328,40.426-90.655,80.852-136.035,121.22c-6.197,5.513-12.395,11.024-18.6,16.527c-1.844,1.636-3.688,3.271-5.537,4.902
			c-0.552,0.487-1.104,0.975-1.658,1.46c-0.719,0.632-2.794,2.323,0.201-0.087c-1.368,1.102-2.792,2.133-4.224,3.15
			c-0.716,0.51-5.208,3.488-2.4,1.668c-1.622,1.052-3.269,2.063-4.921,3.065c-3.941,2.391-7.973,4.633-12.042,6.796
			c-5.823,3.096-16.009,7.77-24.108,10.847c-7.325,2.784-27.026,10.628-32.511,0.768c-0.985-1.771-1.142-4.937-0.603-7.199
			c0.258-1.083,1.262-3.64,1.349-3.8c0.448-0.824,0.971-1.606,1.488-2.387c0.366-0.536,0.745-1.063,1.138-1.58
			c-0.523,0.686-0.406,0.564,0.351-0.363c1.863-2.199,5.521-5.428,6.936-6.537c1.901-1.49,3.866-2.899,5.842-4.288
			c1.005-0.707,2.024-1.392,3.043-2.076c1.229-0.815,1.37-0.908,0.421-0.28c0.692-0.444,1.386-0.885,2.082-1.322
			c11.216-7.081,22.947-13.436,34.44-20.053c0.623-0.358,1.253-0.701,1.888-1.038c2.49-1.321-3.194,1.581,0.092-0.037
			c2.015-0.991,4.057-1.926,6.109-2.837c5.86-2.602,11.82-4.979,17.802-7.284c1.819-0.701,3.643-1.391,5.469-2.076
			c0.972-0.364,1.944-0.726,2.918-1.086c0.779-0.289,4.84-1.773,1.712-0.634c4.734-1.725,9.484-3.406,14.243-5.062
			c11.822-4.113,23.708-8.042,35.623-11.876c34.257-11.024,68.781-21.22,103.386-31.092c50.84-14.503,101.911-28.196,153.076-41.5
			c57.099-14.847,114.33-29.117,172.297-40.196c37.898-7.244,76.144-13.178,114.609-16.406c22.115-1.856,44.437-2.856,66.611-1.476
			c1.328,0.083,2.656,0.179,3.983,0.283c0.694,0.054,1.39,0.114,2.084,0.174c0.572,0.05-0.97-0.096,0.779,0.076
			c2.348,0.231,4.691,0.508,7.028,0.829c3.338,0.458,6.662,1.025,9.95,1.759c2.427,0.541,4.999,1.092,7.28,2.121
			c6.049,2.729,23.15-12.889,17.336-15.513c-3.723-1.68-8.069-2.364-12.048-3.069c-14.595-2.589-29.604-3.109-44.394-3.075
			c-28.5,0.066-56.984,2.822-85.221,6.5c-46.606,6.069-92.827,15.115-138.671,25.394c-59.621,13.368-118.721,29.164-177.722,45.017
			c-44.384,11.926-88.667,24.251-132.721,37.352c-45.758,13.607-92.208,27.168-136.231,45.834
			c-12.679,5.376-24.222,12.477-36.209,19.225c-18.807,10.588-38.193,22.223-51.595,39.51c-7.526,9.708-11.559,28.249,5.095,30.082
			c16.733,1.841,34.828-6.352,49.656-13.104c16.744-7.626,33.481-16.717,47.737-28.442c10.596-8.716,20.621-18.214,30.867-27.33
			c46.106-41.022,92.164-82.1,138.221-123.178c43.598-38.884,87.197-77.768,130.75-116.703c4.783-4.275,9.564-8.551,14.342-12.832
			c1.379-1.235,2.757-2.471,4.133-3.709c0.41-0.369,0.819-0.738,1.228-1.107c0.141-0.127,0.281-0.255,0.422-0.382
			c-0.959,0.865-7.728,5.063-9.435,5.423c-1.216,0.076-2.432,0.152-3.648,0.229c-3.715-0.989,1.284-6.867-0.829-4.05
			c-0.541,0.721-1.871,2.393,0.532-0.665c-0.467,0.595-0.94,1.186-1.414,1.776c-2.639,3.292-5.308,6.56-7.961,9.841
			c-9.422,11.649-18.714,23.405-27.845,35.284c-26.971,35.089-52.432,71.398-75.375,109.258
			c-22.89,37.771-43.633,77.375-57.907,119.265c-1.708,5.012,4.477,3.52,7.053,2.384
			C269.948,372.946,276.151,368.894,277.826,363.976L277.826,363.976z"/>
	</g>
</g>
<g>
	<g>
		<path d="M472.624,131.114c-15.118,20.073-29.604,41.244-40.778,63.784c-3.228,6.512-12.444,23.612-4.426,29.848
			c5.806,4.516,14.23,1.472,20.1-1.348c9.423-4.524,17.673-11.061,25.648-17.73c6.973-5.831,13.613-12.047,20.583-17.881
			c0.416-0.348,2.989-2.406,0.457-0.39c0.691-0.551,1.396-1.085,2.103-1.617c0.656-0.495,1.327-0.969,2-1.441
			c2.272-1.594-2.411,1.492-0.183,0.139c3.007-1.826-3.192,0.986,0.036,0.035c0.728-0.214,0.02-0.446-0.014,0.235
			c-0.078,1.633-2.784,6.521-3.868,9.069c-1.541,3.623-3.254,8.252-1.938,12.165c2.007,5.969,15.043-2.886,17.317-4.469
			c12.067-8.403,21.806-20.208,32.438-30.261c1.129-1.068,2.276-2.117,3.436-3.152c0.52-0.463,1.047-0.916,1.576-1.368
			c1.887-1.611-2.392,1.873-0.563,0.438c2.951-2.316-1.988,1.047,0.126-0.159c-1.831,1.044-6.021,2.763-6.94,1.523
			c0.476,0.641-0.07-1.044,0.122,0.479c0.093,0.733,0.08,1.482,0.071,2.22c-0.027,2.131-0.26,4.263-0.458,6.383
			c-0.506,5.422-3.153,18.126,5.37,18.169c7.983,0.041,15.993-7.745,21.153-13.028c3.168-3.243,5.991-6.778,8.78-10.346
			c1.914-2.448,3.776-4.933,5.61-7.442c1.082-1.48,2.14-2.978,3.199-4.474c-1.987,2.808-10.237,7.144-11.492,7.463
			c-1.217,0.076-2.433,0.152-3.648,0.229c0.861,0.086-1.248-2.538-1.174-1.569c0.034,0.448-0.318,1.686,0.193-0.546
			c-0.213,0.928-0.521,1.838-0.808,2.746c-0.809,2.567-1.625,5.128-2.242,7.75c-1.02,4.324-2.781,12.02,3.107,13.706
			c4.068,1.165,8.976-0.886,12.613-2.449c7.589-3.26,14.821-8.235,21.115-13.521c8.448-7.097,17.958-16.92,21.119-27.914
			c-6.123,4.011-12.245,8.022-18.368,12.034c7.259,1.883,15.068-0.217,21.836-2.789c7.141-2.713,13.725-7.586,19.282-12.725
			c2.825-2.612,6.521-6.009,7.76-9.818c3.699-11.366-23.906,2.14-26.715,3.664c-6.489,3.522-12.871,7.847-18.197,12.978
			c-4.148,3.996-10.23,10.01-9.579,16.379c0.54,5.272,6.535,7.923,11.083,8.861c6.297,1.298,12.961-0.003,19.043-1.697
			c17.229-4.8,33.265-14.472,48.144-24.142c17.522-11.387,34.167-23.963,50.359-37.161c11.768-9.591,23.245-19.558,34.003-30.274
			c7.371-7.342,13.988-15.447,20.367-23.651c5.928-7.624,11.766-15.447,16.295-24.002c1.085-2.048,2.332-4.43,2.327-6.81
			c-0.009-4.626-6.754-2.255-8.903-1.393c-5.803,2.326-10.896,6.581-15.515,10.729c-7.975,7.164-15.441,14.935-22.848,22.676
			c-19.571,20.456-38.726,41.815-55.023,65.008c-4.398,6.26-8.587,12.809-11.732,19.8c-1.859,4.133-3.806,9.452-1.734,13.847
			c2.27,4.814,10.014,3.414,13.992,2.649c9.46-1.817,18.561-6.276,27.11-10.558c4.659-2.333,10.31-5.828,12.347-10.939
			c1.965-4.933-4.686-3.57-7.054-2.384c-3.516,1.761-7.063,3.45-10.672,5.011c-1.492,0.646-3.001,1.25-4.519,1.833
			c-2.375,0.914,1.936-0.674-0.349,0.119c-0.825,0.286-1.659,0.546-2.495,0.799c-1.098,0.333-2.21,0.613-3.329,0.864
			c-1.794,0.401,1.808-0.287,0.096-0.017c-0.44,0.069-0.884,0.114-1.327,0.158c-0.768,0.076-1.54,0.081-2.31,0.042
			c2.002,0.102-0.177-0.119-0.793-0.345c-1.423-0.521,0.336,0.477-0.443-0.213c-0.354-0.313-0.615-0.714-0.838-1.126
			c-0.701-1.297,0.025,0.68-0.151-0.481c-0.104-0.682-0.067-1.383-0.008-2.067c0.029-0.334,0.086-0.665,0.14-0.995
			c0.213-1.286-0.373,1.467-0.04,0.145c0.2-0.792,0.464-1.567,0.737-2.336c0.713-2.001,1.641-3.924,2.61-5.81
			c0.878-1.709-0.884,1.589,0.07-0.145c0.283-0.515,0.576-1.023,0.869-1.533c0.618-1.077,1.266-2.137,1.918-3.192
			c1.561-2.523,3.219-4.986,4.908-7.425c1.724-2.486,3.508-4.93,5.316-7.355c0.955-1.28,1.924-2.55,2.896-3.816
			c0.498-0.647,0.999-1.292,1.5-1.936c-1.429,1.836,0.764-0.959,1.012-1.271c9-11.334,18.527-22.252,28.268-32.953
			c4.558-5.007,9.182-9.953,13.862-14.844c2.008-2.099,4.031-4.184,6.065-6.257c0.938-0.957,1.882-1.909,2.827-2.859
			c0.45-0.453,0.902-0.904,1.354-1.355c-2.586,2.581-0.455,0.457,0.105-0.095c2.837-2.795,5.706-5.564,8.688-8.206
			c0.483-0.428,0.974-0.849,1.468-1.265c1.158-0.974-3.797,2.859-0.058,0.123c2.228-1.63-2.701,1.504-2.602,1.456
			c-0.704,0.34-4.174,1.747-5.301,0.384c-0.523-0.633-0.157-1.081-0.264-0.171c0.211-1.803-0.17,0.141-0.383,0.648
			c-0.878,2.092-2.563,4.67-4.564,7.71c-2.921,4.433-6.083,8.708-9.304,12.927c-5.822,7.626-12.123,14.998-18.897,21.796
			c2.868-2.878-0.333,0.297-1.006,0.942c-1.021,0.98-2.054,1.947-3.089,2.911c-2.635,2.455-5.315,4.861-8.013,7.248
			c-6.375,5.64-12.896,11.113-19.503,16.478c-2.873,2.334,1.903-1.521-1.018,0.818c-0.892,0.714-1.787,1.423-2.683,2.133
			c-1.819,1.441-3.651,2.868-5.487,4.289c-4.062,3.145-8.172,6.227-12.316,9.262c-3.848,2.818-7.742,5.57-11.671,8.274
			c-1.941,1.336-3.9,2.648-5.864,3.951c-3.208,2.127,1.986-1.276-1.227,0.796c-1.286,0.831-2.583,1.646-3.881,2.458
			c-7.873,4.93-14.968,8.886-21.57,11.917c-1.696,0.778-3.416,1.503-5.146,2.203c-0.198,0.08-2.974,1.129-0.935,0.389
			c-0.797,0.29-1.603,0.556-2.409,0.821c-3.487,1.148-6.083,1.711-8.272,1.972c-4.351,0.519-9.444,0.235-12.956-3.263
			c-0.396-0.394-1.328-2.265-1.098-1.402c-0.171-0.638,0.174-2.873-0.227-1.28c0.604-2.407-0.629,0.528,0.463-1.168
			c1.074-1.667-1.552,1.84-0.226,0.245c0.521-0.628,2.624-2.632,0.032-0.135c0.466-0.449,0.956-0.873,1.444-1.297
			c1.896-1.646-2.406,1.871-0.378,0.304c0.771-0.594,4.841-3.349,1.395-1.099c1.211-0.791,2.456-1.528,3.708-2.25
			c0.621-0.357,1.25-0.699,1.879-1.041c1.789-0.971-2.313,1.126,0.519-0.261c1.17-0.573,2.361-1.103,3.56-1.613
			c0.552-0.235,1.109-0.454,1.668-0.672c1.948-0.761-2.187,0.759-0.309,0.126c0.874-0.294,1.763-0.538,2.662-0.741
			c-2.421,0.547-1.252,0.218-0.629,0.152c1.519-0.162-1.057-0.241-0.313-0.093c-1.01-0.201-0.63-1.899,0.176-3.202
			c0.082-0.133,1.592-1.669-0.385,0.158c-0.619,0.573-1.569,0.974-2.479,1.363c-2.037,0.873-4.604,0.936-6.819,0.949
			c-1.467,0.009-1.271,0.092-2.974-0.35c-5.946-1.542-16.768,6.469-18.368,12.034c-1.662,5.781-5.8,11.297-10.909,15.357
			c-1.119,0.889-2.358,1.664-3.54,2.466c1.732-1.176-1.402,0.823-1.438,0.845c-0.295,0.176-3.375,1.762-0.883,0.533
			c-0.388,0.191-2.976,1.202-0.491,0.316c-0.419,0.149-2.489,0.574-0.266,0.197c-0.375,0.063-1.925,0-0.205,0.173
			c-1.523-0.154-0.878-0.15-1.254-0.629c-0.852-1.083-0.304-0.059-0.467-1.145c-0.129-0.865-0.076-1.758-0.014-2.625
			c0.221-3.036,0.384-2.919,1.115-5.5c0.838-2.956,2.992-7.014,2.754-10.134c-0.377-4.928-8.413-0.784-10.407,0.375
			c-6.214,3.615-9.865,8.972-13.998,14.69c-2.947,4.078-6.01,8.05-9.371,11.796c-0.306,0.341-2.562,2.65-0.439,0.549
			c-0.524,0.52-1.077,1.01-1.633,1.496c3.806-3.333-1.821,0.908,2.864-2.05c1.807-1.141,3.102-1.53,4.586-1.678
			c0.937-0.093,1.237,0.47,0.867,0.057c-0.315-0.351-0.815-1.97-0.505-0.752c-0.474-1.857-0.394-3.882-0.333-5.779
			c0.141-4.379,0.8-8.724,1.01-13.098c0.162-3.36-0.105-7.898-4.724-7.235c-7.895,1.133-14.751,7.114-20.493,12.241
			c-5.503,4.913-10.657,10.221-15.893,15.415c-2.578,2.558-5.169,5.103-7.8,7.606c-1.178,1.12-2.371,2.222-3.577,3.312
			c-0.835,0.755-5.268,4.372-1.716,1.563c-0.446,0.353-0.905,0.688-1.366,1.022c-1.754,1.269,2.773-1.72,1.064-0.702
			c1.401-0.834,4.218-2.162,5.824-1.667c1.09,0.336,0.644,1.373,0.657-0.807c0.013-2.044,0.943-4.036,1.695-5.892
			c2.046-5.053,9.231-16.188-0.719-16.639c-8.461-0.383-17.705,6.678-23.976,11.59c-7.52,5.891-14.548,12.36-21.749,18.627
			c-1.411,1.229-2.836,2.443-4.267,3.649c-0.845,0.713-1.698,1.414-2.553,2.115c2.13-1.747-0.629,0.48-0.889,0.684
			c-1.616,1.26-3.273,2.465-4.954,3.637c-2.701,1.884,2.175-1.343-0.52,0.34c-0.76,0.474-1.54,0.912-2.321,1.349
			c3.431-1.915-3.379,1.247-0.15,0.105c-0.664,0.234-1.347,0.402-2.031,0.564c1.796-0.426-0.112-0.085-0.49-0.069
			c-0.652,0.028-2.621-0.561-3.647-2.017c-1.536-2.179-0.468-6.918,0.341-9.61c1.809-6.024,4.657-11.754,7.558-17.313
			c9.975-19.112,23.408-38.372,36.727-56.056c2.834-3.762,0.48-6.252-3.69-5.08C480.867,122.681,475.999,126.633,472.624,131.114
			L472.624,131.114z"/>
	</g>
</g>
<g>
	<g>
		<path d="M401.61,210.092c0.322-0.228,0.647-0.451,0.972-0.674c0.373-0.255,0.748-0.506,1.124-0.757
			c1.523-1.017-2.905,1.857-0.066,0.061c1.313-0.831,2.648-1.624,3.994-2.4c0.729-0.421,1.469-0.821,2.209-1.222
			c-2.635,1.424,0.679-0.307,1.202-0.547c0.733-0.337,1.483-0.636,2.233-0.931c-2.222,0.873-0.004,0.086,0.436-0.031
			c-1.712,0.458,0.013,0.022,0.436-0.007c0.979-0.067-0.533-0.301,0.823,0.305c-0.208-0.094,0.226,0.651,0.261,1.583
			c0.006,0.17-0.085,1.425-0.107,1.514c-0.074,0.304-1.158,2.856-0.541,1.728c-0.407,0.743-0.904,1.435-1.393,2.125
			c1.211-1.71-0.625,0.642-0.768,0.799c-2.106,2.322,1.673-1.523-0.712,0.656c-0.498,0.445-1.005,0.881-1.52,1.307
			c1.168-0.938,1.193-0.977,0.073-0.113c-0.827,0.625-1.684,1.209-2.54,1.794c2.389-1.632-0.481,0.253-0.835,0.465
			c-0.876,0.525-1.773,1.015-2.67,1.503c2.134-1.162-1.42,0.655-1.817,0.836c-2.691,1.224-4.08,1.805-6.629,1.952
			c-0.212,0.013-0.773-0.163-0.831-0.228c-0.6-0.675,0.011,0.892-0.063-0.14c-0.04-0.55-0.315,0.533,0.32-0.946
			c2.153-5.021-4.813-3.371-7.054-2.385c-4.768,2.101-10.223,5.989-12.347,10.939c-5.531,12.898,13.176,7.312,18.77,5.191
			c13.807-5.232,27.117-14.774,36.044-26.526c2.92-3.845,6.13-10.229,4.144-15.133c-1.783-4.401-8.248-3.013-11.682-2.093
			c-9.557,2.561-18.684,8.519-26.685,14.191c-1.999,1.417-9.535,7.291-7.098,10.646C391.75,216.938,399.608,211.512,401.61,210.092
			L401.61,210.092z"/>
	</g>
</g>
<g>
	<g>
		<path d="M589.71,139.552c1.778-2.889,3.556-5.777,5.334-8.667c0.702-1.14,2.02-3.2,0.998-4.605
			c-1.001-1.377-3.412-0.833-4.688-0.474c-5.128,1.441-10.909,5.392-13.729,9.975c-1.778,2.889-3.556,5.777-5.334,8.667
			c-0.702,1.14-2.02,3.2-0.998,4.605c1.001,1.377,3.412,0.833,4.688,0.474C581.108,148.087,586.89,144.135,589.71,139.552
			L589.71,139.552z"/>
	</g>
</g>
</svg>
